<?xml version="1.0" encoding="UTF-8" standalone="no"?>
<!-- Created with Inkscape (http://www.inkscape.org/) -->
<svg xmlns:dc="http://purl.org/dc/elements/1.1/" xmlns:cc="http://web.resource.org/cc/" xmlns:rdf="http://www.w3.org/1999/02/22-rdf-syntax-ns#" xmlns:svg="http://www.w3.org/2000/svg" xmlns="http://www.w3.org/2000/svg" xmlns:sodipodi="http://sodipodi.sourceforge.net/DTD/sodipodi-0.dtd" xmlns:inkscape="http://www.inkscape.org/namespaces/inkscape" id="svg2" sodipodi:version="0.32" inkscape:version="0.44+devel" width="300" height="178" version="1.0" sodipodi:docbase="C:\Documents and Settings\Molumen\Desktop" sodipodi:docname="nayrhcrel_Golden_Plover_3.jpg" sodipodi:modified="true">
  <defs id="defs5"/>
  <sodipodi:namedview inkscape:window-height="573" inkscape:window-width="739" inkscape:pageshadow="2" inkscape:pageopacity="0.0" guidetolerance="10.0" gridtolerance="10.0" objecttolerance="10.0" borderopacity="1.0" bordercolor="#666666" pagecolor="#ffffff" id="base" inkscape:zoom="1.4976363" inkscape:cx="201.86533" inkscape:cy="88.909199" inkscape:window-x="643" inkscape:window-y="293" inkscape:current-layer="svg2"/>
  <path style="fill:#000000" d="M 276.77913,170.49002 C 276.37145,169.83036 276.8793,169.29064 277.90773,169.29064 C 278.93615,169.29064 279.77758,169.83036 279.77758,170.49002 C 279.77758,172.04191 277.73826,172.04191 276.77913,170.49002 z M 271.34258,167.68298 C 262.32841,163.98017 258.25566,161.97356 257.5995,160.91188 C 256.712,159.47587 258.20723,160.01618 265.90391,163.91274 C 269.14041,165.55127 272.64151,166.86173 273.68411,166.82487 C 274.72672,166.78801 273.33074,165.8435 270.58194,164.72596 C 265.62707,162.71151 262.76985,160.82696 264.88528,160.96859 C 265.48997,161.00907 268.51344,162.22345 271.6041,163.66719 C 275.84016,165.646 276.86386,166.61298 275.7626,167.59535 C 274.74966,168.49893 273.39436,168.52579 271.34258,167.68298 z M 170.93387,166.65792 C 167.47066,166.02631 164.63712,165.06949 164.63712,164.53165 C 164.63712,163.99383 163.42275,163.23936 161.93852,162.85507 C 156.72006,161.50391 152.64333,156.76933 152.64333,152.05993 C 152.64333,149.66295 153.21491,147.7018 153.91349,147.7018 C 154.61208,147.7018 154.8539,148.23535 154.45089,148.88744 C 154.02261,149.58039 154.53339,149.76023 155.68005,149.32022 C 157.25299,148.71663 157.32479,148.36266 156.04219,147.5349 C 154.73285,146.68987 154.76903,146.288 156.24147,145.32141 C 157.23096,144.67185 157.47383,144.13212 156.78119,144.12203 C 156.08855,144.11192 154.96207,144.66344 154.27789,145.34762 C 152.92807,146.69743 147.44951,145.17401 146.16205,143.09085 C 145.76748,142.45244 144.49299,142.17897 143.32985,142.48313 C 142.16668,142.7873 139.87341,142.50099 138.23367,141.84687 C 136.51049,141.15947 136.05374,140.62549 137.15133,140.58155 C 139.71977,140.47873 139.58078,136.94129 136.87101,133.44735 C 134.31194,130.14771 133.9808,126.58395 136.15185,125.70791 C 137.24704,125.266 137.20186,125.07745 135.98423,125.00827 C 135.06747,124.9562 133.71816,124.11146 132.98578,123.13109 C 131.57505,121.24269 113.69514,116.549 98.67124,114.12313 C 87.814197,112.37008 86.104313,111.89374 87.098739,110.89931 C 87.519285,110.47877 90.969789,110.79371 94.76653,111.59916 C 98.56326,112.40463 104.63815,113.63219 108.26628,114.32707 C 111.8944,115.02194 118.00986,116.33888 121.85617,117.25358 C 132.27078,119.73032 132.49725,119.66411 131.55214,114.41901 C 131.10641,111.94529 130.36958,109.38162 129.91477,108.72196 C 129.45994,108.06229 128.37212,105.25192 127.49741,102.47667 C 125.84364,97.229763 124.4801,97.002044 120.05376,101.23353 C 115.0872,105.98144 111.21759,107.15332 94.83354,108.87131 C 85.573794,109.84227 77.701757,110.3408 77.340123,109.97916 C 76.978489,109.61754 78.09001,109.32165 79.810168,109.32165 C 81.530328,109.32165 83.271297,108.78193 83.678989,108.12226 C 84.086681,107.46261 89.234959,106.92289 95.11961,106.92289 C 106.77645,106.92289 114.05228,104.83558 118.74931,100.14393 C 120.2272,98.667749 122.36342,96.941159 123.49647,96.307075 C 125.43155,95.22415 125.42021,94.90102 123.30965,90.981953 C 121.03307,86.754612 116.78662,84.310897 102.86907,79.218975 C 99.57077,78.012251 97.70247,77.005459 98.71728,76.981662 C 100.85454,76.931543 112.68788,80.960198 113.86707,82.139409 C 114.30481,82.577146 115.65245,82.935293 116.86183,82.935293 C 118.07121,82.935293 119.06426,83.609943 119.0686,84.434517 C 119.07294,85.25909 120.14883,84.31458 121.45945,82.335603 C 122.77007,80.356626 123.84597,78.407869 123.85031,78.005032 C 123.85465,77.602196 120.63466,75.554468 116.69477,73.454529 C 112.75488,71.354589 108.83181,68.93694 107.97685,68.081975 C 107.12189,67.227011 102.92428,64.983451 98.64882,63.096284 C 94.37337,61.209119 88.862039,58.424223 86.401427,56.907626 C 83.940814,55.391029 81.684658,54.150178 81.387744,54.150178 C 81.090828,54.150178 77.436988,52.612626 73.268096,50.733397 C 64.63873,46.843501 61.405937,45.672917 51.295735,42.777281 C 47.337781,41.643694 42.210432,39.765899 39.901626,38.604404 C 37.592821,37.44291 33.679844,36.123327 31.206123,35.672 C 27.915212,35.071579 26.708448,34.252918 26.708448,32.620807 C 26.708448,31.049185 25.202555,29.913675 21.611085,28.77717 C 17.76805,27.56106 16.481435,26.525137 16.382518,24.567371 C 16.27845,22.507633 17.12562,21.806588 20.478966,21.177496 C 27.65621,19.831037 38.931029,19.227398 38.311594,20.222761 C 37.501443,21.524582 55.778441,20.620259 57.39837,19.27837 C 58.116182,18.68376 62.97367,17.620834 68.192787,16.916312 C 78.760809,15.48975 88.559972,13.982616 102.86907,11.58302 C 114.80407,9.581552 140.61395,7.1620899 152.04363,6.9733148 C 163.83516,6.7785619 191.07488,13.698362 199.35321,18.991529 C 204.01877,21.974689 211.77066,28.463559 218.67679,35.166703 C 221.85222,38.248798 226.23944,41.546206 228.42619,42.494274 C 236.79812,46.123953 239.17877,46.953898 241.21838,46.953898 C 244.65138,46.953898 254.85608,52.605354 259.61557,57.142433 C 265.28447,62.546421 266.62012,69.426315 263.55731,77.446167 C 262.21427,80.962891 261.75506,84.275359 262.26034,86.801787 C 263.25136,91.756912 265.69484,97.32785 266.87719,97.32785 C 267.37582,97.32785 267.78378,98.947013 267.78378,100.92599 C 267.78378,102.90497 267.30756,104.52413 266.72551,104.52413 C 265.47918,104.52413 255.78999,95.031766 255.78999,93.810747 C 255.78999,92.228285 247.30673,88.932192 243.23388,88.932192 C 240.99041,88.932192 237.63546,88.321655 235.77846,87.575443 C 225.14951,83.304353 193.85125,83.367995 185.16158,87.678369 C 181.85175,89.320155 175.07562,91.142519 169.12302,91.991762 C 164.59131,92.63829 163.31043,93.334211 162.91093,95.366883 C 161.92293,100.39387 158.59993,126.47097 158.9169,126.70977 C 159.09456,126.84363 161.66866,127.6061 164.63712,128.40416 C 167.60558,129.20223 171.65349,130.32504 173.63247,130.89931 C 175.61144,131.47357 180.02449,132.73114 183.43923,133.69391 C 186.85398,134.65668 191.44161,136.36253 193.63397,137.48468 C 195.82632,138.60684 199.23923,139.77364 201.21821,140.07757 C 207.88238,141.10105 217.2811,144.12441 218.14524,145.52263 C 218.74584,146.49441 218.31498,146.62616 216.70705,145.96239 C 211.63946,143.87042 203.67904,141.7049 201.05658,141.7049 C 199.5282,141.7049 196.51059,140.62748 194.35076,139.31063 C 192.19093,137.99377 189.24128,136.91433 187.79598,136.91187 C 186.35068,136.9094 184.8724,136.42884 184.51092,135.84396 C 184.14945,135.25909 181.82378,134.4169 179.34278,133.97244 C 174.00129,133.01554 167.26289,131.03367 164.35356,129.56386 C 159.90632,127.31714 158.64023,128.26434 158.64023,133.83815 C 158.64023,136.76768 159.18875,139.50359 159.85917,139.91792 C 160.52959,140.33226 160.77142,141.16752 160.39656,141.77404 C 160.02172,142.38057 160.55384,142.55492 161.57907,142.1615 C 164.13413,141.18104 169.70086,142.7026 168.81322,144.13883 C 168.41748,144.77914 165.90892,145.30304 163.23864,145.30304 C 159.30422,145.30304 158.52163,145.66279 159.1116,147.20021 C 159.512,148.24365 159.83961,149.59295 159.83961,150.19865 C 159.83961,151.64539 163.83843,151.61848 165.29679,150.16195 C 167.14146,148.31958 176.63092,147.16052 176.63092,148.77758 C 176.63092,149.53787 175.33405,150.65301 173.74898,151.25564 C 167.46421,153.64511 169.20587,154.89808 178.81205,154.89808 C 185.77652,154.89808 188.72852,155.37706 189.81232,156.68296 C 192.02291,159.34655 188.51379,160.33793 177.8303,160.06806 C 169.01559,159.84538 168.91598,159.87548 172.87064,161.56728 C 175.09028,162.51682 178.16181,163.29373 179.69629,163.29373 C 183.07071,163.29373 184.76933,165.55861 182.48164,167.0076 C 180.54932,168.23151 179.3656,168.19567 170.93387,166.65792 z M 161.03898,158.42544 C 161.03898,157.72684 160.49926,157.48884 159.83961,157.89652 C 158.30275,158.84636 158.30275,159.69559 159.83961,159.69559 C 160.49926,159.69559 161.03898,159.12403 161.03898,158.42544 z M 158.34038,154.17035 C 158.34038,152.17125 158.00196,151.59142 157.40189,152.56234 C 156.88572,153.39753 156.74107,154.80445 157.08044,155.68886 C 157.99605,158.07487 158.34038,157.65988 158.34038,154.17035 z M 143.04829,140.63384 C 143.04829,140.04476 142.2662,139.26267 141.3103,138.89585 C 140.14868,138.4501 139.79348,138.80529 140.23924,139.96692 C 140.96722,141.86402 143.04829,142.3581 143.04829,140.63384 z M 151.78814,127.17678 C 151.22778,126.61642 149.03206,125.81049 146.90879,125.38585 C 141.54152,124.31239 141.78179,127.16172 147.54597,132.942 L 152.04363,137.45223 L 152.4253,132.82392 C 152.63522,130.27837 152.3485,127.73714 151.78814,127.17678 z M 140.37467,129.48622 C 140.11355,128.70288 139.39393,127.98326 138.7755,127.88706 C 138.15708,127.79084 138.11694,127.95739 138.68632,128.25712 C 139.25572,128.55686 138.98585,129.26823 138.08664,129.83792 C 136.82338,130.63827 136.95156,130.87793 138.65056,130.89212 C 139.85994,130.90222 140.63579,130.26958 140.37467,129.48622 z M 156.96964,126.67795 C 157.11206,125.70755 156.77017,124.91359 156.20989,124.91359 C 155.64958,124.91359 155.27073,125.96986 155.36798,127.26088 C 155.56198,129.8363 156.55937,129.47328 156.96964,126.67795 z M 147.26994,123.5951 C 150.38578,124.37967 153.1187,124.838 153.3431,124.61361 C 153.5675,124.3892 153.90663,120.52084 154.09674,116.01723 L 154.4424,107.82886 L 146.88711,105.45445 C 139.01497,102.98047 137.5469,100.48895 143.74048,100.11418 L 147.24612,99.902055 L 143.64798,100.8253 C 139.71139,101.83538 140.37645,102.34169 148.37806,104.42624 C 150.97961,105.10397 153.34428,105.42234 153.6329,105.13374 C 153.92152,104.84512 154.2711,102.83579 154.40976,100.66857 C 154.54842,98.501343 155.05365,95.513788 155.53249,94.029555 C 156.15351,92.104604 155.92345,91.330951 154.73,91.330951 C 152.12472,91.330951 138.13018,85.384807 136.20541,83.460033 C 133.92951,81.184131 133.17874,81.278366 130.72135,84.148382 C 127.8248,87.531314 128.086,88.244293 132.85356,89.968263 C 137.80632,91.759207 138.2294,93.388349 134.01629,94.445768 C 131.615,95.048456 131.1312,95.741975 131.69947,97.766913 C 133.00044,102.40275 137.42197,113.49124 138.56457,114.98359 C 139.18113,115.78884 139.73941,118.34652 139.80519,120.66728 C 139.87097,122.98804 140.30278,124.27524 140.76479,123.52771 C 141.38866,122.51827 143.06234,122.5356 147.26994,123.5951 z M 133.67814,91.711018 C 132.81234,91.364552 131.77787,91.407162 131.37932,91.805706 C 130.98077,92.204249 131.68917,92.487722 132.95351,92.435643 C 134.35072,92.378093 134.63492,92.093891 133.67814,91.711018 z M 127.45635,89.678739 C 127.45635,89.429681 126.63441,88.54376 125.62982,87.710025 C 124.1026,86.44254 123.92709,86.516741 124.55877,88.162857 C 125.2039,89.844072 127.45635,91.022446 127.45635,89.678739 z M 262.86977,75.10507 C 264.0255,70.515261 263.95258,69.337716 262.41761,67.802733 C 261.41105,66.796179 260.5875,65.439614 260.5875,64.788141 C 260.5875,64.136671 260.04779,63.937214 259.38813,64.344906 C 258.72847,64.752597 258.18875,64.327312 258.18875,63.399827 C 258.18875,61.351224 254.1866,56.548937 252.47933,56.548937 C 251.80271,56.548937 250.96773,55.81569 250.62384,54.919501 C 250.19161,53.793119 248.48081,53.441839 245.08243,53.781677 C 240.83705,54.206215 240.0152,53.896689 239.05882,51.51313 L 237.95134,48.752969 L 237.87532,51.451573 C 237.79538,54.288961 237.19408,54.52424 230.90286,54.179801 C 228.75897,54.062425 227.00487,54.528474 227.00487,55.215466 C 227.00487,55.902456 225.91269,57.04906 224.57779,57.763471 C 222.69989,58.768496 221.73067,58.642354 220.29429,57.20598 C 217.77884,54.690515 216.30904,54.867789 217.02365,57.600458 C 217.48195,59.353032 216.99241,59.817711 214.81244,59.699373 C 213.27255,59.61578 211.64577,58.737806 211.19739,57.748317 C 210.53287,56.281868 210.36658,56.340399 210.29786,58.064902 C 210.2244,59.908338 209.36652,60.09029 203.63046,59.479022 C 196.57914,58.727592 192.22286,59.527664 192.22286,61.574137 C 192.22286,62.36505 192.89215,62.284092 194.00774,61.358236 C 195.44935,60.161804 195.92978,60.234328 196.50576,61.735336 C 196.89799,62.757465 197.98382,63.300226 198.9187,62.941474 C 199.8536,62.582721 200.61852,62.88666 200.61852,63.616895 C 200.61852,65.289228 203.87416,65.372399 204.42689,63.714187 C 204.66659,62.99509 207.07561,63.591244 210.22389,65.148756 C 213.18667,66.614494 218.18421,67.995029 221.32953,68.216609 C 226.1434,68.555736 227.47695,68.156942 229.75742,65.69628 C 231.4991,63.816985 234.43187,62.478357 237.96997,61.947788 C 243.15461,61.170303 243.6255,61.336124 246.09955,64.810616 C 247.54395,66.83908 249.1008,68.444718 249.55924,68.378702 C 254.0945,67.725614 257.55432,72.719881 256.18749,77.946618 C 255.75912,79.584686 256.25076,80.471767 257.77763,80.815833 C 260.99227,81.540232 261.35056,81.138416 262.86977,75.10507 z M 165.16934,70.201738 C 168.29227,69.003352 164.98327,66.011398 161.50144,66.885281 C 159.77507,67.318572 158.64023,67.07612 158.64023,66.273998 C 158.64023,65.542827 157.83064,64.944596 156.84116,64.944596 C 155.83601,64.944596 155.04209,66.01325 155.04209,67.366205 C 155.04209,69.350354 155.58375,69.651866 158.04054,69.035253 C 159.88806,68.571553 161.03898,68.792966 161.03898,69.612093 C 161.03898,71.107825 162.32841,71.291902 165.16934,70.201738 z M 138.21298,65.282234 C 139.55491,65.633154 140.35038,65.430883 139.98071,64.832742 C 139.61103,64.234604 140.91462,63.745216 142.87756,63.745216 C 144.8405,63.745216 146.65881,64.382038 146.91826,65.160376 C 147.18957,65.974328 148.2834,66.232696 149.49297,65.768537 C 153.48793,64.235531 150.07899,62.545836 142.99121,62.545836 C 136.11292,62.545836 131.05449,64.770614 131.05449,67.795795 C 131.05449,68.41109 132.11618,67.953692 133.41381,66.779355 C 134.79067,65.533317 136.78914,64.909889 138.21298,65.282234 z M 171.23371,67.343355 C 171.64141,66.683696 171.43524,66.143975 170.77559,66.143975 C 170.11593,66.143975 169.24265,66.683696 168.83496,67.343355 C 168.42726,68.003014 168.63342,68.542735 169.29308,68.542735 C 169.95274,68.542735 170.82602,68.003014 171.23371,67.343355 z M 177.23061,66.143975 C 177.64396,65.47517 176.74677,64.952721 175.20248,64.962962 C 172.97447,64.977737 172.78478,65.208608 174.23217,66.143975 C 176.4639,67.58623 176.33925,67.58623 177.23061,66.143975 z M 187.91027,63.012101 C 188.5219,61.418212 188.07154,61.222931 185.33998,61.897593 C 180.26872,63.150131 179.16096,64.944596 183.45901,64.944596 C 185.76393,64.944596 187.44951,64.212808 187.91027,63.012101 z M 117.16968,61.449289 C 115.00391,59.429868 110.66491,58.707048 110.66742,60.366098 C 110.6688,61.284155 112.26342,62.058377 114.47346,62.21402 C 116.64612,62.367031 117.80226,62.039113 117.16968,61.449289 z M 161.33884,59.18872 C 159.8546,58.964397 158.64023,58.278678 158.64023,57.664899 C 158.64023,57.05112 157.79428,56.548937 156.76033,56.548937 C 155.42823,56.548937 155.10159,55.852158 155.63938,54.157724 C 156.22199,52.32209 155.9621,51.933905 154.52082,52.486975 C 153.48821,52.88323 152.64333,53.727967 152.64333,54.364167 C 152.64333,55.920276 155.7555,58.947697 157.35518,58.947697 C 158.06196,58.947697 158.64023,59.436889 158.64023,60.03479 C 158.64023,60.632694 159.8546,60.778691 161.33884,60.359232 L 164.03743,59.596576 L 161.33884,59.18872 z M 148.07069,59.327764 C 147.20488,58.981298 146.17043,59.023908 145.77188,59.42245 C 145.37333,59.820995 146.08173,60.104467 147.34606,60.052389 C 148.74328,59.994838 149.02748,59.710637 148.07069,59.327764 z M 208.64484,54.737614 C 207.89636,50.125249 204.94198,46.364055 203.00692,47.559994 C 202.33144,47.977463 202.08928,48.821455 202.46881,49.435533 C 203.15528,50.54627 202.70641,50.715716 198.31971,51.001805 C 194.66932,51.239874 193.87967,52.950798 197.42017,52.950798 C 199.65964,52.950798 200.62402,53.580066 200.63688,55.049712 C 200.65213,56.790838 200.84307,56.851712 201.75713,55.406823 C 202.36315,54.44883 202.53622,53.142738 202.1417,52.504397 C 201.72166,51.82477 202.29217,51.676773 203.5183,52.147286 C 204.66996,52.589219 206.1078,52.950798 206.71351,52.950798 C 207.31922,52.950798 207.8148,54.3001 207.8148,55.949247 C 207.8148,57.598394 208.15527,58.947697 208.57141,58.947697 C 208.98757,58.947697 209.02059,57.05316 208.64484,54.737614 z M 149.04519,55.349558 C 149.04519,54.689899 148.50546,54.150178 147.84581,54.150178 C 147.18615,54.150178 146.64643,54.689899 146.64643,55.349558 C 146.64643,56.009216 147.18615,56.548937 147.84581,56.548937 C 148.50546,56.548937 149.04519,56.009216 149.04519,55.349558 z M 194.62162,55.278774 C 194.62162,54.580185 194.0819,54.342175 193.42224,54.749867 C 191.88538,55.699704 191.88538,56.548937 193.42224,56.548937 C 194.0819,56.548937 194.62162,55.977363 194.62162,55.278774 z M 205.41603,55.349558 C 205.41603,54.689899 204.84446,54.150178 204.14587,54.150178 C 203.44727,54.150178 203.20927,54.689899 203.61696,55.349558 C 204.5668,56.886425 205.41603,56.886425 205.41603,55.349558 z M 92.674336,52.98844 C 92.674336,52.349483 91.864756,52.137368 90.875267,52.517071 C 88.571654,53.40105 88.571654,54.150178 90.875267,54.150178 C 91.864756,54.150178 92.674336,53.627396 92.674336,52.98844 z M 144.47255,53.330864 C 143.60674,52.984398 142.57229,53.027009 142.17374,53.425552 C 141.77519,53.824096 142.48359,54.107569 143.74792,54.05549 C 145.14514,53.997939 145.42934,53.713738 144.47255,53.330864 z M 149.64488,51.751418 C 150.05257,51.091759 149.24299,50.552039 147.84581,50.552039 C 146.44863,50.552039 145.63904,51.091759 146.04674,51.751418 C 146.99658,53.288285 148.69504,53.288285 149.64488,51.751418 z M 176.63092,50.552039 C 177.35503,49.19905 177.42936,48.153278 176.80144,48.153278 C 176.18915,48.153278 175.36762,48.988667 174.97581,50.009697 C 174.40117,51.50718 173.57254,51.159336 170.69008,48.210626 C 167.09277,44.530626 164.63712,43.5342 164.63712,45.754519 C 164.63712,46.414178 165.85149,46.962164 167.33573,46.972265 C 169.30673,46.985679 169.59558,47.268637 168.40706,48.021722 C 167.27268,48.740501 167.18186,49.301307 168.10722,49.873209 C 168.8373,50.324427 169.43464,50.353341 169.43464,49.937462 C 169.43464,49.521582 170.28277,50.029451 171.31939,51.066057 C 173.81846,53.56513 175.0839,53.442668 176.63092,50.552039 z M 180.78757,49.532402 C 180.11177,48.820992 177.8303,50.624004 177.8303,51.86949 C 177.8303,52.516225 178.58545,52.349442 179.5084,51.498861 C 180.43137,50.648279 181.00699,49.763373 180.78757,49.532402 z M 137.65108,50.552039 C 137.24338,49.892379 136.3701,49.352659 135.71045,49.352659 C 135.05078,49.352659 134.84463,49.892379 135.25232,50.552039 C 135.66002,51.211697 136.5333,51.751418 137.19295,51.751418 C 137.85262,51.751418 138.05877,51.211697 137.65108,50.552039 z M 140.64953,49.281875 C 140.64953,47.923626 140.13337,47.131329 139.50253,47.521215 C 138.87167,47.911102 138.65956,49.022396 139.03116,49.990758 C 139.98254,52.470012 140.64953,52.177855 140.64953,49.281875 z M 145.7469,47.358952 C 144.92231,47.02623 143.57301,47.02623 142.74844,47.358952 C 141.92387,47.691676 142.59852,47.963903 144.24767,47.963903 C 145.89681,47.963903 146.57147,47.691676 145.7469,47.358952 z M 194.62162,47.126032 C 194.62162,46.561048 193.00369,46.156257 191.02621,46.226498 C 186.33425,46.39316 186.33175,48.153278 191.02348,48.153278 C 193.00245,48.153278 194.62162,47.691018 194.62162,47.126032 z M 72.284881,45.754519 C 72.284881,45.09486 71.713306,44.555139 71.014717,44.555139 C 70.316128,44.555139 70.078119,45.09486 70.485811,45.754519 C 71.435647,47.291386 72.284881,47.291386 72.284881,45.754519 z M 158.64023,45.154829 C 158.64023,44.165341 157.80937,43.355759 156.79386,43.355759 C 155.26837,43.355759 155.21627,43.66048 156.49402,45.109209 C 158.46002,47.338267 158.64023,47.342099 158.64023,45.154829 z M 134.48083,44.686695 C 135.61522,43.967917 135.70603,43.40711 134.78067,42.835209 C 133.25936,41.89498 131.05449,42.954585 131.05449,44.625923 C 131.05449,46.020506 132.33983,46.043303 134.48083,44.686695 z M 140.04983,44.555139 C 139.64215,43.89548 138.66578,43.364024 137.88014,43.374126 C 137.02185,43.385162 137.16978,43.856549 138.25076,44.555139 C 140.55492,46.044199 140.97013,46.044199 140.04983,44.555139 z M 184.58379,41.754823 C 184.12502,39.926938 182.77259,38.636278 180.95111,38.288081 C 179.03767,37.922304 178.2352,38.217829 178.59511,39.155728 C 178.89895,39.947521 177.38819,41.174476 175.18731,41.923346 C 171.26306,43.258613 171.26042,43.264676 174.83185,42.739899 C 176.81083,42.449113 179.77848,42.964281 181.42663,43.884717 C 185.03575,45.900282 185.53901,45.560765 184.58379,41.754823 z M 180.55389,41.431754 C 180.95244,41.033211 181.9869,40.9906 182.8527,41.337067 C 183.80948,41.719939 183.5253,42.004141 182.12807,42.061692 C 180.86373,42.11377 180.15535,41.830299 180.55389,41.431754 z M 67.47224,43.321032 C 65.279308,41.934527 63.889223,41.848979 63.889223,43.100527 C 63.889223,43.619807 65.096788,44.135636 66.572705,44.246813 C 68.681695,44.405679 68.874271,44.207484 67.47224,43.321032 z M 151.88976,43.604734 C 152.21282,43.08201 151.42343,42.574953 150.13555,42.477942 C 148.84767,42.380928 148.10735,42.808611 148.49035,43.428347 C 149.34018,44.803406 151.09275,44.894342 151.88976,43.604734 z M 62.689842,42.312361 C 62.689842,41.738493 60.396028,40.933165 57.592478,40.522747 C 54.788928,40.112326 50.606091,39.494316 48.297285,39.149391 C 44.414252,38.569282 44.32431,38.622739 47.097905,39.862225 C 48.747052,40.599208 52.794959,41.619414 56.093254,42.129348 C 59.391548,42.639281 62.225083,43.123835 62.389997,43.206129 C 62.554911,43.288426 62.689842,42.886231 62.689842,42.312361 z M 170.24464,42.566578 C 169.81059,42.132529 170.05658,41.053087 170.79129,40.167818 C 171.77386,38.98389 171.7711,38.55824 170.78087,38.55824 C 170.04045,38.55824 169.43464,39.097961 169.43464,39.75762 C 169.43464,40.417279 168.04898,40.957 166.35537,40.957 C 163.82191,40.957 163.41104,40.531815 164.03743,38.55824 C 164.58712,36.826345 164.25296,36.159481 162.83547,36.159481 C 161.48547,36.159481 160.99188,37.002489 161.25541,38.858085 C 161.54386,40.889026 162.67726,41.740182 165.8365,42.298338 C 168.14531,42.706242 170.25921,43.111033 170.53408,43.197872 C 170.80893,43.284709 170.67868,43.000628 170.24464,42.566578 z M 191.02348,39.686836 C 191.02348,39.066108 190.48376,38.55824 189.82409,38.55824 C 189.16444,38.55824 188.62472,39.399675 188.62472,40.428094 C 188.62472,41.456512 189.16444,41.964382 189.82409,41.55669 C 190.48376,41.148998 191.02348,40.307564 191.02348,39.686836 z M 98.07155,39.75762 C 97.12171,38.220752 96.27248,38.220752 96.27248,39.75762 C 96.27248,40.417279 96.84405,40.957 97.54264,40.957 C 98.24123,40.957 98.47924,40.417279 98.07155,39.75762 z M 142.07379,40.137687 C 141.208,39.791221 140.17353,39.833831 139.77497,40.232374 C 139.37644,40.630919 140.08482,40.91439 141.34917,40.862312 C 142.74638,40.804762 143.03057,40.52056 142.07379,40.137687 z M 146.64643,39.686836 C 146.64643,38.988247 146.10671,38.750239 145.44705,39.157931 C 143.91019,40.107766 143.91019,40.957 145.44705,40.957 C 146.10671,40.957 146.64643,40.385426 146.64643,39.686836 z M 153.32729,39.893978 C 152.96595,39.309316 153.8786,38.431217 155.35543,37.942648 L 158.04054,37.054339 L 155.27592,36.514842 C 151.80345,35.837212 148.14636,38.448044 150.48764,39.933228 C 152.55396,41.243993 154.14803,41.221958 153.32729,39.893978 z M 198.81945,39.75762 C 197.86961,38.220752 197.02038,38.220752 197.02038,39.75762 C 197.02038,40.417279 197.59196,40.957 198.29054,40.957 C 198.98913,40.957 199.22714,40.417279 198.81945,39.75762 z M 142.4486,37.35886 C 142.85629,36.699202 142.34843,36.159481 141.32,36.159481 C 140.29159,36.159481 139.45015,36.699202 139.45015,37.35886 C 139.45015,38.910746 141.48948,38.910746 142.4486,37.35886 z M 146.24664,34.36041 C 146.24664,33.370923 145.52701,32.561341 144.64745,32.561341 C 143.76792,32.561341 143.04829,31.783613 143.04829,30.833055 C 143.04829,29.882498 142.42518,28.719665 141.66359,28.248981 C 140.84364,27.742223 140.60303,27.917646 141.07363,28.6791 C 141.6006,29.53175 140.3497,29.823764 137.36096,29.545798 C 132.12613,29.058931 128.65573,29.832003 128.65573,31.484983 C 128.65573,32.178248 129.65759,32.109557 131.14331,31.314427 C 133.24119,30.191678 133.73035,30.363463 134.26578,32.410958 C 134.76438,34.317617 136.09705,34.934146 140.47371,35.282955 C 143.53887,35.52724 146.09172,35.824392 146.14668,35.943295 C 146.20166,36.062197 146.24664,35.349899 146.24664,34.36041 z M 137.05139,31.399604 C 137.05139,30.760648 137.86097,30.548531 138.85046,30.928235 C 141.15407,31.812214 141.15407,32.561341 138.85046,32.561341 C 137.86097,32.561341 137.05139,32.038559 137.05139,31.399604 z M 172.05828,35.340168 C 171.19248,34.993702 170.15803,35.036312 169.75947,35.434855 C 169.36093,35.833399 170.06932,36.116871 171.33365,36.064793 C 172.73088,36.007243 173.01507,35.723041 172.05828,35.340168 z M 124.29458,33.167921 C 123.91633,32.182221 123.11488,31.679793 122.51358,32.051415 C 121.25594,32.828687 122.26553,34.960101 123.89135,34.960101 C 124.49138,34.960101 124.67283,34.153619 124.29458,33.167921 z M 161.03898,33.031918 C 161.03898,30.761536 158.49738,29.603709 154.44311,30.027177 C 150.99026,30.387826 148.68686,32.210625 149.67125,33.803405 C 150.60574,35.31545 161.03898,34.607385 161.03898,33.031918 z M 120.15767,32.059141 C 119.88145,31.782932 118.0374,31.220012 116.05978,30.808212 L 112.4641,30.059482 L 116.06224,31.739961 C 119.26922,33.237757 121.51099,33.41247 120.15767,32.059141 z M 163.58657,29.842746 C 162.40205,28.667034 162.26428,28.8048 162.91517,30.514153 C 163.36556,31.697007 164.03621,32.362663 164.40549,31.993388 C 164.77476,31.624115 164.40626,30.656326 163.58657,29.842746 z M 173.03278,31.100367 C 173.03278,30.584584 171.68348,30.162582 170.03433,30.162582 C 168.38519,30.162582 167.03589,30.696257 167.03589,31.348526 C 167.03589,32.000796 168.38519,32.4228 170.03433,32.286313 C 171.68348,32.149824 173.03278,31.616149 173.03278,31.100367 z M 182.8677,31.122085 C 181.74828,30.002665 181.1086,30.002665 179.98919,31.122085 C 178.86977,32.241506 179.1896,32.561341 181.42844,32.561341 C 183.66729,32.561341 183.98712,32.241506 182.8677,31.122085 z M 88.476508,28.963202 C 87.157189,28.396272 85.268167,27.90275 84.278678,27.866486 C 82.679506,27.807881 82.679506,27.929737 84.278678,28.963202 C 85.268167,29.602658 87.157189,30.09618 88.476508,30.059917 C 90.875267,29.993984 90.875267,29.993984 88.476508,28.963202 z M 110.66503,26.436122 C 110.66503,24.666362 109.80545,24.174094 106.76705,24.203827 C 103.01697,24.240524 102.96008,24.312001 105.26783,26.08755 C 106.58715,27.102621 107.53813,28.415334 107.38112,29.004694 C 107.22413,29.594052 107.89878,29.768073 108.88035,29.391408 C 109.86193,29.014743 110.66503,27.684863 110.66503,26.436122 z M 187.66521,27.523946 C 186.89561,26.754344 185.86779,26.522825 185.38115,27.00946 C 184.89452,27.496094 185.27468,28.375278 186.22597,28.963202 C 188.46591,30.347568 189.47737,29.336104 187.66521,27.523946 z M 30.170219,27.328448 C 31.270928,26.002173 30.938343,25.806211 28.407722,26.28997 C 26.131282,26.725138 25.723374,27.16187 26.898011,27.906359 C 28.91174,29.182668 28.583196,29.240693 30.170219,27.328448 z M 65.778894,25.065217 C 66.052179,22.455912 65.625563,21.766924 63.736617,21.766924 C 62.42337,21.766924 61.68246,22.306644 62.090152,22.966303 C 63.028007,24.483784 61.312297,24.494576 57.370713,22.995989 C 54.981551,22.087632 54.294183,22.199285 54.294183,23.495731 C 54.294183,24.41392 53.646116,25.381188 52.854033,25.645216 C 51.733419,26.018755 51.733419,26.322751 52.854033,27.015328 C 53.646116,27.504862 54.294183,27.333816 54.294183,26.635227 C 54.294183,25.936636 55.103765,25.365063 56.093254,25.365063 C 58.272676,25.365063 58.477541,27.310672 56.393098,28.212714 C 55.568525,28.569548 57.265278,28.749455 60.163662,28.612507 C 64.957781,28.385987 65.46463,28.065797 65.778894,25.065217 z M 60.291082,26.564443 C 60.291082,25.904784 60.830803,25.365063 61.490462,25.365063 C 62.150122,25.365063 62.689842,25.904784 62.689842,26.564443 C 62.689842,27.224101 62.150122,27.763822 61.490462,27.763822 C 60.830803,27.763822 60.291082,27.224101 60.291082,26.564443 z M 100.35559,27.030592 C 100.89838,25.616078 100.58496,25.294547 99.18643,25.831212 C 98.13551,26.23449 97.04995,26.564443 96.77407,26.564443 C 96.49819,26.564443 96.27248,27.104164 96.27248,27.763822 C 96.27248,29.717596 99.55036,29.128964 100.35559,27.030592 z M 128.05604,27.763822 C 127.1062,26.226955 126.25697,26.226955 126.25697,27.763822 C 126.25697,28.423481 126.82855,28.963202 127.52714,28.963202 C 128.22573,28.963202 128.46374,28.423481 128.05604,27.763822 z M 159.12114,27.734214 C 161.16986,26.906011 161.24782,26.702334 159.53977,26.640467 C 158.38536,26.598653 157.43259,25.889791 157.42248,25.065217 C 157.41002,24.048626 157.12045,23.98341 156.52295,24.862629 C 156.03831,25.57578 153.53193,26.1155 150.95324,26.062009 C 148.37453,26.008517 146.06432,26.553672 145.81942,27.273463 C 145.278,28.864834 155.45254,29.217263 159.12114,27.734214 z M 172.05828,28.143889 C 171.19248,27.797423 170.15803,27.840033 169.75947,28.238576 C 169.36093,28.63712 170.06932,28.920593 171.33365,28.868515 C 172.73088,28.810963 173.01507,28.526762 172.05828,28.143889 z M 72.284881,26.564443 C 72.284881,25.007215 69.049471,25.007215 68.087051,26.564443 C 67.679359,27.224101 68.457088,27.763822 69.815337,27.763822 C 71.173585,27.763822 72.284881,27.224101 72.284881,26.564443 z M 20.936433,25.745129 C 20.07063,25.398664 19.036166,25.441274 18.637622,25.839816 C 18.239078,26.238361 18.947462,26.521834 20.211808,26.469755 C 21.609016,26.412204 21.893218,26.128003 20.936433,25.745129 z M 84.721117,25.6195 C 85.04232,25.099783 83.914374,24.559457 82.214568,24.418776 C 80.514765,24.278096 78.442841,23.597671 77.610295,22.906719 C 76.555329,22.031175 75.861019,22.031583 75.319325,22.908063 C 74.891835,23.599754 75.383507,24.165683 76.411926,24.165683 C 77.440344,24.165683 78.281779,24.705404 78.281779,25.365063 C 78.281779,26.777341 83.869088,26.998113 84.721117,25.6195 z M 131.65418,24.165683 C 131.1139,22.463377 131.43866,21.766924 132.77273,21.766924 C 135.95574,21.766924 134.84641,19.979163 131.54486,19.788134 C 128.91948,19.636227 128.54584,20.007465 129.13058,22.186893 C 129.51106,23.605057 129.82973,25.170163 129.83874,25.664908 C 129.84775,26.159652 130.4312,26.564443 131.13532,26.564443 C 131.86971,26.564443 132.09092,25.541745 131.65418,24.165683 z M 143.04829,25.365063 C 143.04829,24.705404 142.2387,24.165683 141.24922,24.165683 C 140.25973,24.165683 139.45015,24.705404 139.45015,25.365063 C 139.45015,26.024722 140.25973,26.564443 141.24922,26.564443 C 142.2387,26.564443 143.04829,26.024722 143.04829,25.365063 z M 121.99583,22.863864 C 121.60967,22.239025 120.78247,22.043753 120.15763,22.429923 C 119.53279,22.816095 119.33753,23.643285 119.7237,24.268122 C 120.10986,24.89296 120.93705,25.088232 121.5619,24.702062 C 122.18673,24.315891 122.382,23.488702 121.99583,22.863864 z M 146.64643,23.106188 C 146.64643,22.523467 145.70192,21.775118 144.54751,21.443192 C 143.39311,21.111267 141.50409,20.450853 140.34969,19.975608 C 139.05674,19.443324 138.25076,19.648529 138.25076,20.510006 C 138.25076,21.279173 138.71098,21.624066 139.27346,21.276437 C 139.83593,20.928807 141.32016,21.419511 142.57175,22.366889 C 145.19926,24.355757 146.64643,24.618328 146.64643,23.106188 z M 155.04209,22.238293 C 155.04209,21.979039 154.2325,21.766924 153.24302,21.766924 C 152.25353,21.766924 151.44395,22.289705 151.44395,22.92866 C 151.44395,23.567617 152.25353,23.779734 153.24302,23.40003 C 154.2325,23.020328 155.04209,22.497546 155.04209,22.238293 z M 126.85666,21.766924 C 125.90682,20.230056 125.05759,20.230056 125.05759,21.766924 C 125.05759,22.426582 125.62917,22.966303 126.32776,22.966303 C 127.02635,22.966303 127.26436,22.426582 126.85666,21.766924 z M 177.23061,18.168783 C 175.9113,17.601854 173.48255,17.163925 171.8334,17.195607 C 169.11266,17.247877 169.16821,17.338009 172.4331,18.168783 C 177.42741,19.439619 180.18801,19.439619 177.23061,18.168783 z M 155.64177,16.969404 C 154.68265,15.417518 152.64333,15.417518 152.64333,16.969404 C 152.64333,17.629063 153.48476,18.168783 154.51319,18.168783 C 155.5416,18.168783 156.04947,17.629063 155.64177,16.969404 z M 137.63071,15.303757 C 136.37787,14.387652 134.61029,13.92304 133.70279,14.271288 C 132.33647,14.795589 132.32783,15.07884 133.65253,15.918568 C 134.53242,16.476325 136.29999,16.940937 137.58047,16.951038 C 139.8609,16.969027 139.86194,16.935259 137.63071,15.303757 z M 142.00807,11.988367 C 145.88659,7.5164071 144.80317,7.2720071 140.16318,11.572195 C 138.38372,13.221343 137.56695,14.570644 138.34813,14.570644 C 139.12933,14.570644 140.77629,13.408621 142.00807,11.988367 z M 147.84581,10.302032 C 147.84581,9.2736124 147.30609,8.7657435 146.64643,9.1734354 C 145.09454,10.132554 145.09454,12.171885 146.64643,12.171885 C 147.30609,12.171885 147.84581,11.330451 147.84581,10.302032 z M 151.94277,10.20317 C 152.57445,8.557055 152.39894,8.482853 150.87171,9.7503383 C 148.7905,11.477596 148.57389,12.171885 150.11625,12.171885 C 150.70533,12.171885 151.52726,11.285963 151.94277,10.20317 z M 158.79321,10.07297 C 160.28509,8.1706868 160.24266,8.1282647 158.34038,9.6201384 C 156.34251,11.186971 155.70716,12.171885 156.6943,12.171885 C 156.94336,12.171885 157.88786,11.227373 158.79321,10.07297 z M 137.05139,9.1026517 C 137.05139,8.8117528 136.51166,8.5737455 135.85201,8.5737455 C 135.19235,8.5737455 134.65262,9.1453195 134.65262,9.8439091 C 134.65262,10.542498 135.19235,10.780508 135.85201,10.372816 C 136.51166,9.9651232 137.05139,9.3935504 137.05139,9.1026517 z M 250.48034,157.87077 C 246.98409,155.2257 248.69552,154.91733 252.79154,157.45433 C 254.77051,158.68009 255.5801,159.66865 254.59061,159.65114 C 253.60112,159.63364 251.7515,158.83246 250.48034,157.87077 z M 140.12891,156.22539 C 139.20496,154.73041 144.82739,153.49747 148.4372,154.40348 C 150.0818,154.81625 151.12938,155.63611 150.76519,156.22539 C 149.90344,157.61973 140.99066,157.61973 140.12891,156.22539 z M 232.13892,153.99854 C 231.70576,152.84414 230.50833,151.24214 229.47796,150.43855 C 227.78443,149.11774 227.78838,148.97381 229.51921,148.93932 C 230.57226,148.91835 233.13593,149.7503 235.21626,150.78809 C 239.08841,152.71978 240.43284,154.17376 237.1996,152.93305 C 236.06038,152.49589 235.40053,152.94959 235.40053,154.17007 C 235.40053,156.75014 233.12652,156.63055 232.13892,153.99854 z M 120.85976,152.49932 C 121.82445,150.93844 131.88887,150.93844 132.85356,152.49932 C 133.31413,153.24454 131.04335,153.6987 126.85666,153.6987 C 122.66997,153.6987 120.39919,153.24454 120.85976,152.49932 z M 275.57976,152.49932 C 273.18099,151.46853 273.18099,151.46853 275.57976,151.46853 C 276.89908,151.46853 279.05796,151.93239 280.37727,152.49932 C 282.77604,153.5301 282.77604,153.5301 280.37727,153.5301 C 279.05796,153.5301 276.89908,153.06625 275.57976,152.49932 z M 107.06689,150.36871 C 107.06689,149.85653 109.22578,149.64337 111.86442,149.895 C 118.04536,150.48444 118.04536,151.29994 111.86442,151.29994 C 109.22578,151.29994 107.06689,150.88089 107.06689,150.36871 z M 264.78534,150.10056 C 262.38657,149.06978 262.38657,149.06978 264.78534,149.06978 C 266.10465,149.06978 268.26354,149.53362 269.58285,150.10056 C 271.98162,151.13134 271.98162,151.13134 269.58285,151.13134 C 268.26354,151.13134 266.10465,150.6675 264.78534,150.10056 z M 256.6667,148.11446 C 257.47872,147.78592 259.09788,147.76593 260.26484,148.07002 C 261.43179,148.37411 260.76741,148.64292 258.78843,148.66737 C 256.80946,148.6918 255.85468,148.443 256.6667,148.11446 z M 247.09449,146.40635 C 244.79296,145.06584 244.22136,141.7049 246.2949,141.7049 C 247.00954,141.7049 247.3655,142.37955 247.08593,143.20412 C 246.78717,144.08536 248.35277,145.26951 250.88397,146.07682 C 254.50704,147.23236 254.71455,147.46446 252.19185,147.53957 C 250.5427,147.58868 248.24889,147.07874 247.09449,146.40635 z M 237.7993,140.50553 C 236.20012,139.47205 236.20012,139.3502 237.7993,139.40881 C 238.78878,139.44506 240.6778,139.93859 241.99712,140.50553 C 244.39588,141.53631 244.39588,141.53631 241.99712,141.60223 C 240.6778,141.63851 238.78878,141.14498 237.7993,140.50553 z M 230.60301,138.10676 C 229.00384,137.07329 229.00384,136.94412 230.60301,136.94412 C 231.59251,136.94412 233.21166,137.4673 234.20116,138.10676 C 235.80032,139.14024 235.80032,139.26941 234.20116,139.26941 C 233.21166,139.26941 231.59251,138.74623 230.60301,138.10676 z M 220.40829,135.708 C 218.22175,134.76842 218.27481,134.67722 221.00797,134.67722 C 222.65713,134.67722 225.08586,135.14107 226.40518,135.708 C 228.59172,136.64758 228.53865,136.73879 225.8055,136.73879 C 224.15634,136.73879 221.7276,136.27494 220.40829,135.708 z M 273.78069,134.83379 C 272.7912,134.45712 271.65472,133.6494 271.25517,133.03886 C 270.85564,132.4283 267.61731,131.21962 264.0589,130.35287 C 260.3181,129.4417 258.85383,128.72872 260.5875,128.66255 C 264.57421,128.51043 273.74122,131.30473 274.78244,132.98949 C 275.23808,133.72672 277.76275,134.54927 280.39284,134.81734 L 285.17479,135.30476 L 280.37727,135.4117 C 277.73864,135.47051 274.77018,135.21045 273.78069,134.83379 z M 94.66899,133.70472 C 94.22685,133.26258 90.223918,132.52962 85.773591,132.07593 L 77.682089,131.25105 L 84.948976,131.08076 C 89.711681,130.96916 93.018147,131.5173 94.54401,132.67141 C 95.8245,133.63992 96.55733,134.4495 96.17253,134.47048 C 95.78773,134.49146 95.11114,134.14686 94.66899,133.70472 z M 211.73777,133.78399 C 212.13631,133.38545 213.17077,133.34285 214.03658,133.68931 C 214.99336,134.07218 214.70917,134.35639 213.31195,134.41393 C 212.04761,134.46601 211.33922,134.18255 211.73777,133.78399 z M 201.8179,132.10986 C 200.333,131.15025 200.43774,130.95873 202.41759,131.01315 C 203.7369,131.04941 205.89579,131.54293 207.2151,132.10986 C 209.41196,133.05388 209.36149,133.1462 206.61542,133.20658 C 204.96627,133.24285 202.80738,132.74932 201.8179,132.10986 z M 192.22286,129.71111 C 190.79876,128.79078 191.04874,128.54846 193.42224,128.54846 C 195.07139,128.54846 197.23027,129.07164 198.21976,129.71111 C 199.64386,130.63142 199.39388,130.87375 197.02038,130.87375 C 195.37123,130.87375 193.21235,130.35057 192.22286,129.71111 z M 91.175112,127.66529 C 92.659345,127.3794 95.08809,127.3794 96.57232,127.66529 C 98.05655,127.95115 96.84218,128.18506 93.873717,128.18506 C 90.905251,128.18506 89.69088,127.95115 91.175112,127.66529 z M 185.38219,126.835 C 185.6399,126.05582 189.84135,125.37029 195.61769,125.16492 C 201.00678,124.97332 205.41603,124.4252 205.41603,123.94683 C 205.41603,123.17158 189.21267,117.76113 181.42844,115.93717 C 175.44457,114.53504 168.76996,112.36467 165.8365,110.86713 C 160.96113,108.37826 165.76171,109.07172 175.43154,112.25318 C 180.37899,113.88092 187.66521,116.09682 191.62316,117.1774 C 211.96521,122.73107 212.91226,126.43895 194.281,127.58329 C 187.7902,127.98195 185.07825,127.7539 185.38219,126.835 z M 251.892,127.7174 C 252.71658,127.38467 254.06588,127.38467 254.89045,127.7174 C 255.71502,128.05012 255.04038,128.32235 253.39123,128.32235 C 251.74208,128.32235 251.06743,128.05012 251.892,127.7174 z M 241.19987,126.71499 C 240.87133,126.38645 235.24923,125.04505 228.70632,123.73411 C 205.37393,119.05924 203.58449,118.65018 200.89413,117.37609 C 199.39656,116.66691 198.58699,115.67789 199.09506,115.17829 C 200.31341,113.98026 225.81129,113.25552 225.80802,114.41901 C 225.80663,114.91376 220.0035,115.36493 212.91217,115.42163 C 197.50608,115.54482 198.54855,116.02863 226.80976,121.87152 C 245.9497,125.82863 250.85447,127.31234 244.79567,127.31234 C 243.14652,127.31234 241.52841,127.04354 241.19987,126.71499 z M 95.39793,125.38834 C 95.79647,124.98979 96.83094,124.94719 97.69674,125.29366 C 98.65352,125.67652 98.36932,125.96073 96.97211,126.01827 C 95.70777,126.07035 94.99939,125.78689 95.39793,125.38834 z M 98.67124,122.51483 C 95.87997,121.6209 95.85436,121.54629 98.30061,121.435 C 99.74591,121.36925 101.26199,121.85516 101.66969,122.51483 C 102.07738,123.17449 102.24416,123.6604 102.04031,123.59465 C 101.83647,123.5289 100.32039,123.04297 98.67124,122.51483 z M 80.680539,120.11606 C 76.540238,119.24458 76.556675,119.23225 81.879919,119.21648 C 84.848383,119.20769 88.89629,119.6125 90.875267,120.11606 C 94.27975,120.98235 94.21519,121.03077 89.675888,121.01565 C 87.037252,121.00686 82.989345,120.60204 80.680539,120.11606 z M 96.27248,118.91669 C 92.644352,117.72671 90.628899,116.70019 91.793691,116.63551 C 94.72275,116.47288 103.46876,119.29899 103.46876,120.40809 C 103.46876,120.90714 103.33383,121.26253 103.16891,121.19786 C 103.004,121.13319 99.9006,120.10666 96.27248,118.91669 z M 80.394677,115.66965 C 81.886602,115.38277 84.045485,115.39367 85.192196,115.69385 C 86.33891,115.99405 85.118244,116.22878 82.479609,116.21547 C 79.840973,116.20216 78.902755,115.95653 80.394677,115.66965 z M 106.1421,111.49634 C 106.73973,109.70346 109.46565,108.71631 109.46565,110.29276 C 109.46565,110.93682 108.61098,111.79173 107.56636,112.19259 C 106.39827,112.64084 105.84995,112.37279 106.1421,111.49634 z M 67.812193,108.59702 C 68.210737,108.19848 69.245202,108.15587 70.111005,108.50234 C 71.067789,108.88521 70.783588,109.16942 69.386379,109.22696 C 68.122033,109.27904 67.41365,108.99557 67.812193,108.59702 z M 184.4269,99.729189 C 181.00215,99.117828 183.06135,98.862792 191.62316,98.837893 C 198.93074,98.81664 202.67972,99.184814 201.21821,99.780198 C 198.36922,100.9408 191.09039,100.91869 184.4269,99.729189 z M 90.275577,75.739013 C 88.868426,74.829643 89.179604,74.572365 91.704018,74.558 C 93.47915,74.547899 95.26509,75.079355 95.67279,75.739013 C 96.6193,77.270499 92.64538,77.270499 90.275577,75.739013 z M 81.879919,73.340254 C 80.390167,72.377503 80.493273,72.177607 82.479609,72.177607 C 83.798927,72.177607 85.68795,72.700798 86.677438,73.340254 C 88.16719,74.303006 88.064084,74.502902 86.077748,74.502902 C 84.75843,74.502902 82.869407,73.979711 81.879919,73.340254 z M 75.583175,71.346548 C 76.407748,71.013826 77.757051,71.013826 78.581624,71.346548 C 79.406198,71.679272 78.731547,71.951498 77.0824,71.951498 C 75.433252,71.951498 74.758601,71.679272 75.583175,71.346548 z M 67.487362,69.742115 C 65.99761,68.779364 66.100716,68.579467 68.087051,68.579467 C 69.406368,68.579467 71.295392,69.102659 72.284881,69.742115 C 73.774633,70.704867 73.671527,70.904762 71.68519,70.904762 C 70.365873,70.904762 68.476849,70.381572 67.487362,69.742115 z M 57.892323,67.343355 C 56.29315,66.309891 56.29315,66.191951 57.892323,66.281896 C 58.881811,66.337549 61.040695,66.815206 62.689842,67.343355 L 65.688292,68.303626 L 62.689842,68.404815 C 61.040695,68.460468 58.881811,67.982812 57.892323,67.343355 z M 49.796509,65.317212 C 50.950912,65.015536 52.839936,65.015536 53.994339,65.317212 C 55.148742,65.61889 54.20423,65.865716 51.895424,65.865716 C 49.586618,65.865716 48.642106,65.61889 49.796509,65.317212 z " id="path2161"/>
  <metadata>
    <rdf:RDF>
      <cc:Work>
        <dc:format>image/svg+xml</dc:format>
        <dc:type rdf:resource="http://purl.org/dc/dcmitype/StillImage"/>
        <cc:license rdf:resource="http://creativecommons.org/licenses/publicdomain/"/>
        <dc:publisher>
          <cc:Agent rdf:about="http://openclipart.org/">
            <dc:title>Open Clip Art Library</dc:title>
          </cc:Agent>
        </dc:publisher>
        <dc:title>Golden Plover 3</dc:title>
        <dc:date>2007-01-05T20:25:05</dc:date>
        <dc:description/>
        <dc:source>http://openclipart.org/detail/2795/golden-plover-3-by-molumen</dc:source>
        <dc:creator>
          <cc:Agent>
            <dc:title>molumen</dc:title>
          </cc:Agent>
        </dc:creator>
        <dc:subject>
          <rdf:Bag>
            <rdf:li>american golden plover</rdf:li>
            <rdf:li>american golden plover</rdf:li>
            <rdf:li>animal</rdf:li>
            <rdf:li>animal</rdf:li>
            <rdf:li>bird</rdf:li>
            <rdf:li>bird</rdf:li>
            <rdf:li>clip art</rdf:li>
            <rdf:li>clipart</rdf:li>
            <rdf:li>dominica</rdf:li>
            <rdf:li>dominica</rdf:li>
            <rdf:li>fws</rdf:li>
            <rdf:li>fws</rdf:li>
            <rdf:li>fws lineart</rdf:li>
            <rdf:li>fws lineart</rdf:li>
            <rdf:li>golden plover</rdf:li>
            <rdf:li>golden plover</rdf:li>
            <rdf:li>image</rdf:li>
            <rdf:li>line art</rdf:li>
            <rdf:li>line art</rdf:li>
            <rdf:li>media</rdf:li>
            <rdf:li>nature</rdf:li>
            <rdf:li>nature</rdf:li>
            <rdf:li>plover</rdf:li>
            <rdf:li>plover</rdf:li>
            <rdf:li>pluvialis</rdf:li>
            <rdf:li>pluvialis</rdf:li>
            <rdf:li>pluvialis dominica</rdf:li>
            <rdf:li>pluvialis dominica</rdf:li>
            <rdf:li>png</rdf:li>
            <rdf:li>public domain</rdf:li>
            <rdf:li>remix</rdf:li>
            <rdf:li>svg</rdf:li>
            <rdf:li>water</rdf:li>
            <rdf:li>water</rdf:li>
          </rdf:Bag>
        </dc:subject>
      </cc:Work>
      <cc:License rdf:about="http://creativecommons.org/licenses/publicdomain/">
        <cc:permits rdf:resource="http://creativecommons.org/ns#Reproduction"/>
        <cc:permits rdf:resource="http://creativecommons.org/ns#Distribution"/>
        <cc:permits rdf:resource="http://creativecommons.org/ns#DerivativeWorks"/>
      </cc:License>
    </rdf:RDF>
  </metadata>
</svg>
